Coordinates
version=1
nRows=31
nColumns=38
inDegrees=no

Units are S.I. units (second, meters, Newtons, ...)
If the header above contains a line with 'inDegrees', this indicates whether rotational values are in degrees (yes) or radians (no).

endheader
time	pelvis_tilt	pelvis_list	pelvis_rotation	pelvis_tx	pelvis_ty	pelvis_tz	hip_flexion_r	hip_adduction_r	hip_rotation_r	knee_angle_r	ankle_angle_r	subtalar_angle_r	mtp_angle_r	hip_flexion_l	hip_adduction_l	hip_rotation_l	knee_angle_l	ankle_angle_l	subtalar_angle_l	mtp_angle_l	lumbar_extension	lumbar_bending	lumbar_rotation	arm_flex_r	arm_add_r	arm_rot_r	elbow_flex_r	pro_sup_r	wrist_flex_r	wrist_dev_r	arm_flex_l	arm_add_l	arm_rot_l	elbow_flex_l	pro_sup_l	wrist_flex_l	wrist_dev_l
30	0.581591	1.42674	1.08223	0.64477	-0.179298	0.793873	0.870885	-0.0380196	-0.120946	1.25112	-0.123111	0	0	0.894334	-0.312538	-0.276877	1.3507	-0.17066	0	0	-0.609954	0.169899	-0.185939	0.631392	-0.204052	0.646294	0.304948	1.23253	0	0	0.178095	-0.397827	0.120404	0.765468	1.0581	0	0
30.01	0.585426	1.42545	1.07863	0.644813	-0.180521	0.791458	0.877914	-0.0380837	-0.121506	1.25775	-0.121967	0	0	0.90259	-0.314382	-0.274816	1.35924	-0.169578	0	0	-0.61796	0.171194	-0.183601	0.63424	-0.203993	0.641963	0.30641	1.23481	0	0	0.182527	-0.398177	0.119891	0.763867	1.06168	0	0
30.02	0.582713	1.42269	1.08086	0.644995	-0.181727	0.788863	0.88684	-0.0370564	-0.120989	1.26333	-0.120748	0	0	0.912872	-0.316535	-0.272833	1.36821	-0.168413	0	0	-0.623957	0.171761	-0.180643	0.63623	-0.204184	0.636561	0.308387	1.23796	0	0	0.18665	-0.398512	0.119647	0.762265	1.06466	0	0
30.03	0.553923	1.41598	1.10781	0.645272	-0.182958	0.785609	0.903399	-0.0367292	-0.117842	1.27224	-0.118867	0	0	0.928757	-0.317424	-0.271587	1.37768	-0.166756	0	0	-0.623819	0.169832	-0.177248	0.635884	-0.205094	0.628555	0.311517	1.24409	0	0	0.190208	-0.398409	0.120071	0.760534	1.06639	0	0
30.04	0.474924	1.4039	1.18334	0.64573	-0.184236	0.780796	0.933152	-0.0402743	-0.10828	1.28919	-0.114727	0	0	0.953177	-0.313793	-0.273261	1.38883	-0.164187	0	0	-0.611963	0.161711	-0.176527	0.632306	-0.205442	0.619798	0.313867	1.25144	0	0	0.19142	-0.399273	0.122463	0.75899	1.06434	0	0
30.05	0.365986	1.3842	1.28753	0.647222	-0.185325	0.774055	0.975262	-0.0107134	-0.0951149	1.27815	-0.0986687	0	0	0.987626	-0.309165	-0.277535	1.40349	-0.161291	0	0	-0.586624	0.146468	-0.176956	0.622488	-0.204506	0.606655	0.316182	1.26043	0	0	0.190131	-0.40304	0.129863	0.757175	1.05964	0	0
30.06	0.252712	1.35639	1.39421	0.647741	-0.186853	0.766563	1.03163	-0.0180597	-0.0737864	1.30795	-0.0986882	0	0	1.02865	-0.29864	-0.283444	1.41669	-0.156513	0	0	-0.553226	0.128393	-0.179474	0.61308	-0.20455	0.595892	0.31826	1.26952	0	0	0.186849	-0.404615	0.134948	0.75547	1.05595	0	0
30.07	0.0737075	1.32672	1.57685	0.64714	-0.187593	0.755295	1.08763	-0.0545193	-0.0417498	1.34214	-0.0867256	0	0	1.06914	-0.263429	-0.302647	1.43671	-0.14749	0	0	-0.502348	0.0939276	-0.207171	0.596808	-0.197482	0.587016	0.312637	1.27933	0	0	0.171675	-0.412265	0.141749	0.755217	1.05355	0	0
30.08	0.24018	1.34349	1.40378	0.647972	-0.188458	0.760738	1.05905	-0.0172211	-0.0712071	1.32501	-0.0974525	0	0	1.05516	-0.301169	-0.281163	1.43279	-0.152187	0	0	-0.554501	0.125229	-0.171013	0.608642	-0.208294	0.576835	0.326233	1.28292	0	0	0.195884	-0.40275	0.138985	0.749375	1.06148	0	0
30.09	0.321811	1.35266	1.32237	0.648137	-0.188327	0.761614	1.03847	-0.00450237	-0.0863992	1.31448	-0.0977802	0	0	1.04787	-0.316533	-0.271338	1.43799	-0.149851	0	0	-0.58215	0.138675	-0.157031	0.61253	-0.212465	0.571684	0.331572	1.28668	0	0	0.206946	-0.400694	0.143499	0.744807	1.06077	0	0
30.1	0.351128	1.36494	1.29578	0.647237	-0.189508	0.761254	1.03122	-0.043086	-0.0883616	1.36156	-0.103463	0	0	1.03942	-0.314588	-0.266939	1.44313	-0.148989	0	0	-0.603085	0.145259	-0.161917	0.634842	-0.221361	0.692817	0.328317	1.15986	0	0	0.209936	-0.401144	0.137622	0.74164	1.06629	0	0
30.11	0.377381	1.36827	1.26855	0.647122	-0.190211	0.759854	1.02928	-0.0377268	-0.0908607	1.36166	-0.105247	0	0	1.04042	-0.319079	-0.263905	1.45069	-0.14569	0	0	-0.615284	0.1487	-0.15845	0.638021	-0.220694	0.683673	0.329118	1.1699	0	0	0.214444	-0.401867	0.139888	0.738679	1.06739	0	0
30.12	0.387757	1.37151	1.25824	0.647067	-0.191121	0.75818	1.03029	-0.0389785	-0.0908798	1.37018	-0.104864	0	0	1.0422	-0.319578	-0.26171	1.45746	-0.142647	0	0	-0.625086	0.149401	-0.157504	0.639991	-0.219583	0.672963	0.330246	1.17841	0	0	0.219542	-0.404054	0.144492	0.735315	1.06652	0	0
30.13	0.408393	1.37375	1.23733	0.648001	-0.191844	0.756441	1.02523	0.00336587	-0.0946311	1.33034	-0.0904466	0	0	1.0455	-0.3248	-0.257963	1.46527	-0.140841	0	0	-0.634499	0.149841	-0.153626	0.639945	-0.217873	0.660606	0.331545	1.18618	0	0	0.225103	-0.408513	0.152799	0.732277	1.06294	0	0
30.14	0.39833	1.37526	1.24837	0.647053	-0.192803	0.754464	1.03519	-0.0385608	-0.0893228	1.37826	-0.095779	0	0	1.04918	-0.31872	-0.25699	1.47105	-0.137701	0	0	-0.640427	0.14918	-0.155768	0.641545	-0.218331	0.651822	0.332925	1.19307	0	0	0.229775	-0.40995	0.159347	0.728893	1.05818	0	0
30.15	0.398911	1.37479	1.24831	0.647023	-0.19358	0.752445	1.0406	-0.0378663	-0.0884719	1.38293	-0.0971981	0	0	1.05543	-0.31779	-0.254232	1.47764	-0.135572	0	0	-0.645256	0.148895	-0.155512	0.642075	-0.218	0.644591	0.333611	1.19753	0	0	0.233539	-0.41265	0.165397	0.726852	1.05346	0	0
30.16	0.398626	1.37352	1.24882	0.647015	-0.194319	0.750428	1.04715	-0.0373481	-0.0877548	1.38939	-0.0973571	0	0	1.0625	-0.317015	-0.251187	1.48406	-0.133451	0	0	-0.649091	0.148442	-0.154476	0.641952	-0.218156	0.636339	0.334314	1.20176	0	0	0.237212	-0.414875	0.171471	0.72539	1.04675	0	0
30.17	0.39584	1.37106	1.2516	0.647011	-0.195009	0.748354	1.05484	-0.0371	-0.0866658	1.39604	-0.096702	0	0	1.07082	-0.315852	-0.247654	1.4903	-0.131015	0	0	-0.651345	0.147784	-0.15269	0.640618	-0.21882	0.624449	0.335538	1.20782	0	0	0.241065	-0.416813	0.178825	0.724079	1.03685	0	0
30.18	0.39245	1.36771	1.25447	0.647087	-0.195651	0.746256	1.06341	-0.0351268	-0.0850467	1.40104	-0.0956429	0	0	1.07969	-0.316011	-0.245061	1.49641	-0.129034	0	0	-0.652522	0.146993	-0.150498	0.638769	-0.219604	0.611936	0.337034	1.2139	0	0	0.244148	-0.41851	0.185545	0.722753	1.02809	0	0
30.19	0.397887	1.36184	1.24727	0.648144	-0.196113	0.744162	1.06657	0.00869929	-0.0881924	1.36612	-0.0636763	0	0	1.09124	-0.322388	-0.241969	1.50309	-0.128028	0	0	-0.651663	0.145614	-0.139972	0.628022	-0.22117	0.564406	0.344102	1.24472	0	0	0.255255	-0.424414	0.217627	0.717687	0.998103	0	0
30.2	0.392347	1.35838	1.25232	0.648182	-0.196735	0.742212	1.07493	0.0100631	-0.0864131	1.37139	-0.0612595	0	0	1.09957	-0.32272	-0.240648	1.50846	-0.12655	0	0	-0.652139	0.144835	-0.138411	0.628022	-0.223599	0.570101	0.344793	1.22984	0	0	0.257393	-0.425061	0.22085	0.716911	0.994617	0	0
30.21	0.361384	1.34783	1.28297	0.647451	-0.197217	0.739558	1.10006	-0.0263467	-0.0783881	1.41696	-0.0879237	0	0	1.1154	-0.317314	-0.240756	1.51271	-0.124773	0	0	-0.646245	0.140831	-0.135099	0.611815	-0.217991	0.458851	0.353697	1.33878	0	0	0.257814	-0.416175	0.201413	0.718152	1.02319	0	0
30.22	0.354677	1.34397	1.28961	0.647451	-0.197741	0.737743	1.10856	-0.0255298	-0.0767406	1.42175	-0.086624	0	0	1.12362	-0.31725	-0.23996	1.5173	-0.124085	0	0	-0.646598	0.139919	-0.133874	0.611626	-0.219621	0.459396	0.352885	1.33385	0	0	0.258889	-0.415673	0.199653	0.718706	1.02689	0	0
30.23	0.349886	1.34138	1.29455	0.647447	-0.19823	0.736195	1.11507	-0.0251702	-0.075241	1.42591	-0.0853814	0	0	1.12996	-0.317097	-0.239281	1.52131	-0.123194	0	0	-0.648376	0.139279	-0.133417	0.613244	-0.220553	0.464521	0.349366	1.33077	0	0	0.259529	-0.415508	0.197545	0.719472	1.02835	0	0
30.24	0.356639	1.3454	1.2883	0.647338	-0.199024	0.735298	1.11395	-0.0248245	-0.0747288	1.42965	-0.0842737	0	0	1.1292	-0.317256	-0.238087	1.52536	-0.122255	0	0	-0.656085	0.140392	-0.134381	0.618936	-0.219948	0.476177	0.342546	1.33143	0	0	0.260559	-0.416134	0.195571	0.71949	1.02715	0	0
30.25	0.364765	1.34945	1.28118	0.647132	-0.199763	0.734619	1.11197	-0.0249954	-0.0750055	1.43254	-0.0833076	0	0	1.12793	-0.317216	-0.236981	1.52873	-0.121893	0	0	-0.663487	0.142163	-0.135679	0.624558	-0.220072	0.492875	0.336988	1.33696	0	0	0.26213	-0.416152	0.193466	0.718421	1.02557	0	0
30.26	0.372913	1.35343	1.27451	0.646837	-0.200419	0.734118	1.10958	-0.0258174	-0.0756005	1.43505	-0.0826995	0	0	1.12634	-0.316889	-0.2362	1.53147	-0.122217	0	0	-0.670426	0.144081	-0.136849	0.629203	-0.221496	0.511549	0.33434	1.3455	0	0	0.264382	-0.415756	0.192681	0.716263	1.02545	0	0
30.27	0.377567	1.35565	1.27092	0.646591	-0.200938	0.733578	1.10899	-0.0262627	-0.0754087	1.43734	-0.0825378	0	0	1.12622	-0.316651	-0.235805	1.53371	-0.122335	0	0	-0.674967	0.145133	-0.137693	0.631992	-0.222678	0.522224	0.334595	1.35	0	0	0.266105	-0.415644	0.193495	0.71426	1.02725	0	0
30.28	0.379886	1.35688	1.26914	0.646368	-0.201377	0.733092	1.10931	-0.0266164	-0.0749899	1.43918	-0.082549	0	0	1.12669	-0.316519	-0.235748	1.53554	-0.122362	0	0	-0.677602	0.145839	-0.139051	0.634793	-0.223083	0.530965	0.335363	1.35184	0	0	0.266965	-0.416014	0.195361	0.712	1.03125	0	0
30.29	0.380608	1.35769	1.26887	0.646086	-0.201769	0.732736	1.10976	-0.027473	-0.0747734	1.44026	-0.0826823	0	0	1.12717	-0.316069	-0.236079	1.53672	-0.122412	0	0	-0.678861	0.146363	-0.14079	0.63738	-0.223012	0.537884	0.336002	1.3514	0	0	0.267076	-0.416542	0.197577	0.710278	1.03647	0	0
30.3	0.381082	1.35809	1.26832	0.645906	-0.20203	0.732516	1.11015	-0.0277653	-0.0746688	1.4407	-0.0828643	0	0	1.12739	-0.316139	-0.236375	1.53726	-0.122366	0	0	-0.678945	0.146551	-0.142	0.638975	-0.222469	0.54265	0.336035	1.34864	0	0	0.26642	-0.416805	0.199256	0.709221	1.04124	0	0
